<?xml version="1.0" encoding="UTF-8"?><svg id="a" xmlns="http://www.w3.org/2000/svg" viewBox="0 0 480 480"><defs><style>.b{stroke:#eea91b;}.b,.c,.d{fill:none;stroke-miterlimit:10;stroke-width:10px;}.c{stroke:#f34d3b;}.d{stroke:#3a85ff;}</style></defs><path class="d" d="M72.14,289.89l-9.9,61.79c-2.1,13.13,3.55,26.29,14.49,33.85,41.47,28.66,84.35,55.26,128.48,79.68h0c8.71,4,18.06,6.2,27.47,6.63,0,0,1.12,.06,1.67,.05h0c.56,.01,1.67-.05,1.67-.05,9.41-.43,18.76-2.63,27.47-6.63,44.13-24.42,87.01-51.02,128.48-79.68,10.94-7.56,16.6-20.72,14.49-33.85l-9.9-61.79"/><path class="b" d="M197.21,185.73c-37.87,23.73-73.57,50.52-106.72,80.08l-11.31,10.08c-9.75,8.7-9.44,23.59,.68,31.9l6.82,5.03c40.08,29.53,82.04,56.43,125.6,80.53h0c6.6,3.03,13.67,4.7,20.8,5.02,0,0,.85,.04,1.27,.03,.42,0,1.27-.03,1.27-.03,7.13-.33,14.21-1.99,20.8-5.02,43.56-24.11,85.51-51,125.6-80.53l6.82-5.03c10.12-8.31,10.44-23.2,.68-31.9l-11.31-10.08c-32.84-29.29-68.2-55.85-105.69-79.43"/><path class="d" d="M196.17,184.35l-16.77,95.66c-.73,4.14,1.11,8.3,4.64,10.56h0c14.95,9.57,32.33,14.65,50.08,14.65h3.1c17.75,0,35.13-5.09,50.08-14.65,3.54-2.26,5.37-6.43,4.64-10.56l-16.59-94.58"/><circle class="c" cx="235.67" cy="102.88" r="89"/></svg>