<svg id="Livello_1" data-name="Livello 1" xmlns="http://www.w3.org/2000/svg" viewBox="0 0 480 480"><defs><style>.cls-1{fill:#f33c17;}</style></defs><title>Tavola disegno 1</title><path class="cls-1" d="M240,475.57c-7.71,0-15.41-.22-20.11-.67-2.76-.27-26.94-2.72-31.09-5.79l-.15-.11c-4.11-3.06-4.11-4.12-4.11-21.88l0-13.19c-1.16-.36-2.61-.82-4.2-1.3a193.9,193.9,0,0,1-20.53-7.52c-4.42-1.9-13.42-6.32-17.58-8.62l-8.62,8.59c-13,13-14.42,14.33-20,13.05-1.21-.28-4.1-.93-18.2-12.09A267.65,267.65,0,0,1,54,384.62c-3.3-4.15-10.26-13.43-11.34-16a12,12,0,0,1,0-9.05c.32-.64.8-1.6,12.48-13.27l8.36-8.43c-2.32-4.17-6.68-13-8.64-17.62a198.44,198.44,0,0,1-7.5-20.51c-.48-1.58-.94-3-1.3-4.19l-13.19,0h-.62c-17.17,0-18.24-.05-21.24-4.11l-.09-.11c-3-4-5.38-26.62-5.83-31.12a303.87,303.87,0,0,1,0-40.26c.27-2.76,2.72-26.94,5.79-31.09l.11-.15c3.06-4.11,4.13-4.13,21.89-4.11l13.18,0c.16-.51.34-1.08.52-1.69l.79-2.52a196.79,196.79,0,0,1,7.51-20.52c1.9-4.42,6.33-13.41,8.62-17.58l-8.59-8.62c-13-13.05-14.33-14.42-13-20,.28-1.21.93-4.09,12.1-18.2A268.47,268.47,0,0,1,95.39,54c4.15-3.3,13.44-10.26,16-11.34a12,12,0,0,1,9.06,0c.63.32,1.59.8,13.26,12.48l8.43,8.37c4.17-2.32,13-6.69,17.62-8.64a197,197,0,0,1,20.51-7.51l4.19-1.29,0-13.21c0-8.61,0-12.54.29-15,.43-3.69,1.74-5.3,3.85-6.82l.09-.07c4.58-3.43,31.31-5.88,37.68-6.3h0a333.55,333.55,0,0,1,34,.56c.26,0,26.4,2.51,30.73,5.71l.15.11c4.11,3.06,4.11,4.12,4.11,21.89l0,13.18,1.79.56,2.42.75a196.79,196.79,0,0,1,20.52,7.51c4.42,1.9,13.42,6.33,17.58,8.63l8.62-8.6c13.05-13,14.42-14.33,20-13,1.21.27,4.1.92,18.2,12.09A268.47,268.47,0,0,1,426,95.4c3.31,4.16,10.26,13.44,11.34,16a12,12,0,0,1,0,9.06c-.39.77-.72,1.45-12.46,13.26l-8.38,8.43c2.32,4.18,6.69,13.05,8.64,17.63a193.09,193.09,0,0,1,7.5,20.51l.8,2.57.5,1.61,13.19,0h.62c17.17,0,18.24.05,21.24,4.1l.09.12c3,4,5.38,26.62,5.83,31.12a303.72,303.72,0,0,1,0,40.25c-.27,2.76-2.72,26.94-5.79,31.09l-.11.15c-3,4.07-4.1,4.12-21.27,4.12h-.62l-13.18,0-1.31,4.2a191.92,191.92,0,0,1-7.51,20.54c-1.9,4.41-6.32,13.41-8.62,17.57l8.59,8.62c13,13.06,14.33,14.42,13.05,20-.28,1.21-.93,4.1-12.1,18.2A268.09,268.09,0,0,1,384.61,426c-4.15,3.3-13.44,10.25-16,11.33a11.93,11.93,0,0,1-9.06,0c-.77-.39-1.45-.72-13.25-12.46l-8.44-8.38c-4.17,2.32-13,6.68-17.62,8.64a194.72,194.72,0,0,1-20.51,7.5l-2.15.67-2,.63,0,13.2c0,17.76,0,18.82-4.1,21.85l-.12.09c-4,3-26.62,5.39-31.11,5.83C255.43,475.35,247.71,475.57,240,475.57Zm-45.25-14.63c3,.92,13.69,2.79,26.1,4a291.82,291.82,0,0,0,38.33,0c12.43-1.22,23.12-3.09,26.1-4,.2-1.92.2-6.83.2-13.79l0-20.16,4.2-1.7c.35-.12,2.36-.75,4.85-1.52l2.17-.68a186.16,186.16,0,0,0,19.5-7.12c5-2.14,14.91-7.09,17.63-8.72l5.5-3.3,13.94,13.85c5.54,5.5,9.21,9.05,10.73,10.46a3.25,3.25,0,0,0,.63-.08c1.48-.8,8.19-5.56,13.73-10a257.12,257.12,0,0,0,39.78-39.78c7.61-9.61,9.62-13.15,10.11-14.13-1.22-1.65-5.29-5.75-10.31-10.79l-14.07-14.12,3.31-5.5c1.63-2.75,6.59-12.69,8.7-17.61a182.55,182.55,0,0,0,7.13-19.49c1-3.28,2-6.53,2.21-7l.11-.31,1.59-3.89,20.14,0c7,0,11.91,0,13.82-.22.93-3,2.8-13.68,4-26.1a291.82,291.82,0,0,0,0-38.33c-1.22-12.43-3.09-23.11-4-26.09-1.92-.21-6.84-.21-13.8-.21l-20.15,0-1.7-4.2c-.11-.32-.68-2.13-1.39-4.42l-.81-2.59a182.3,182.3,0,0,0-7.13-19.5c-2.12-5-7.08-14.91-8.71-17.64l-3.3-5.49,13.84-13.94c5.51-5.54,9.06-9.22,10.46-10.74a3.44,3.44,0,0,0-.07-.63c-.8-1.47-5.56-8.19-10-13.72a257.62,257.62,0,0,0-39.78-39.79c-9.61-7.6-13.16-9.62-14.13-10.1C362.63,53,358.53,57,353.49,62L339.37,76.1l-5.5-3.3c-2.75-1.63-12.69-6.6-17.61-8.71A183.35,183.35,0,0,0,296.77,57l-2.45-.76-4.59-1.44-.32-.12-3.89-1.59,0-20.14c0-7,0-11.91-.21-13.82-3.08-.95-14.21-2.85-25.72-3.94-6.87-.65-25.65-1-32.44-.53h0c-13.85.92-28.72,3.26-32.37,4.48-.2,1.93-.2,6.84-.2,13.79l-.05,20.16-4.2,1.71c-.54.18-3.8,1.2-7,2.19a184.52,184.52,0,0,0-19.49,7.13c-5,2.13-14.9,7.08-17.63,8.72l-5.5,3.3L126.7,62.25c-5-5-9.07-8.92-10.74-10.46a2.69,2.69,0,0,0-.63.08,169,169,0,0,0-13.73,10A258,258,0,0,0,61.82,101.6c-7.6,9.61-9.62,13.16-10.11,14.13,1.23,1.66,5.3,5.75,10.31,10.8l14.07,14.11-3.31,5.5c-1.62,2.75-6.59,12.69-8.7,17.61A182.74,182.74,0,0,0,57,183.25l-.8,2.55c-.72,2.32-1.3,4.16-1.4,4.49l-.12.31L53,194.49l-20.14,0c-7,0-11.91,0-13.82.21-.93,3-2.8,13.69-4,26.1a292,292,0,0,0,0,38.34c1.22,12.42,3.09,23.11,4,26.09,1.92.21,6.84.2,13.8.21l20.15,0,1.71,4.21c.17.53,1.19,3.79,2.19,7a183.71,183.71,0,0,0,7.13,19.49c2.13,5,7.08,14.91,8.71,17.63l3.3,5.5L62.24,353.32c-5,4.95-8.92,9.06-10.46,10.73a2.68,2.68,0,0,0,.07.63,168.9,168.9,0,0,0,10,13.73,257.12,257.12,0,0,0,39.78,39.78c9.61,7.61,13.15,9.62,14.13,10.11,1.65-1.22,5.75-5.29,10.79-10.31l14.12-14.07,5.5,3.31c2.75,1.63,12.68,6.59,17.61,8.7a185.55,185.55,0,0,0,19.49,7.14c3.26,1,6.52,2,7.05,2.2l.31.11,3.89,1.59.05,20.15C194.53,454.1,194.53,459,194.74,460.94Zm90.51.13Zm-91.05-.32Zm91.6,0Zm78.91-32.58h0ZM51.86,364.71h0Zm408.87-78.9Zm-441.79-.55Zm442.12-90.5Zm-441.79-.55ZM428.13,115.3h0ZM115.3,51.88h0Zm1.16-.07Zm77.78-32.52ZM240,351.79a113.86,113.86,0,0,1-14.75-.83,112.33,112.33,0,0,1-96.2-96.19,131.17,131.17,0,0,1,0-29.51,112.32,112.32,0,0,1,40-71.72c23.27-19,51.61-27.57,81.95-24.83h0c38.54,3.49,73,27.7,90,63.18a109.66,109.66,0,0,1,10.68,42.19A111.95,111.95,0,0,1,254.76,351,114,114,0,0,1,240,351.79Zm.09-213.57a100.86,100.86,0,0,0-64.71,23.07A102.3,102.3,0,0,0,139,226.65a121.88,121.88,0,0,0,0,26.73,102.32,102.32,0,0,0,87.68,87.68,123.13,123.13,0,0,0,26.73,0,102,102,0,0,0,88.32-106.43A98.52,98.52,0,0,0,332,196.2c-15.45-32.31-46.82-54.36-81.86-57.53C246.75,138.37,243.4,138.22,240.09,138.22Z"/></svg>