<svg id="mat_gen" data-name="Material Generation" xmlns="http://www.w3.org/2000/svg" viewBox="0 0 480 480"><defs><style>.cls-1,.cls-2,.cls-3{fill:none;stroke-miterlimit:10;stroke-width:10px;}.cls-1{stroke:#eea91b;}.cls-2{stroke:#3a85ff;}.cls-3{stroke:#f34d3b;}.cls-4{fill:#eea91b;}</style></defs><title>Tavola disegno 1</title><path class="cls-1" d="M460.56,152.09,240,236.05,19.51,152.13,240,80.28Z"/><path class="cls-2" d="M406.35,216.32l54.14,17.74L240,318,19.44,234.1,73,216.56"/><path class="cls-3" d="M406.35,298l54.14,17.75L240,399.72l-220.57-84L73,298.24"/><path class="cls-4" d="M130.12,188.89l-4.23,3.87c2.59.35,5.29.64,8.12.87s5.78.42,8.84.57,6.25.28,9.55.38l10.27.29h4.67c9.28.23,18.87.47,28.55,1.08a264.1,264.1,0,0,1,29.28,3.29,164.21,164.21,0,0,1,29.32,7.8,136.17,136.17,0,0,1,29.15,15.1l9.88-2.13A145,145,0,0,0,279,211.55a149.59,149.59,0,0,0-15.43-6.85A171.68,171.68,0,0,0,247,199.39c-5.71-1.52-11.65-2.8-17.86-3.87q-8-1.38-15.92-2.22c-5.25-.57-10.45-1-15.55-1.31s-10.13-.55-15-.72-9.69-.29-14.32-.41h-4.61c-3.31-.09-6.51-.17-9.59-.27s-6-.2-8.84-.34-5.5-.29-8-.5-4.92-.45-7.14-.75"/><path class="cls-4" d="M163.18,201.82l-1.1,4.31,1.85.05h5.52c8.2.19,16.11.38,23.78.89a163.46,163.46,0,0,1,22.37,2.84,97.77,97.77,0,0,1,43.11,20.27l10.42-2a112.4,112.4,0,0,0-24.29-14.71,115.72,115.72,0,0,0-24.18-7.54A188.37,188.37,0,0,0,195.94,203c-8.37-.55-16.9-.75-25.54-1h-1.8l-1.8-.05H165l-1.81,0"/><path class="cls-4" d="M337.43,115c-1.35.51-2.77,1.08-4.15,1.72a33.43,33.43,0,0,0-3.86,2.09,13.11,13.11,0,0,0-2.85,2.4,4.13,4.13,0,0,0-1.1,2.65,3.88,3.88,0,0,0,1,2.46,11.73,11.73,0,0,0,3,2.43,35.5,35.5,0,0,0,5.1,2.42q3.07,1.22,7.23,2.43c11.63,3.4,21.48,6.18,30.34,8.53s16.83,4.28,24.5,5.93,15.22,3.06,23.37,4.4,17,2.62,27.41,4l2.11-3.22c-9.94-1.36-18.34-2.56-26.11-3.81s-14.84-2.56-22.24-4.14-14.94-3.39-23.65-5.68-18.32-5-29.86-8.34q-3.23-.93-5.62-1.84a32.6,32.6,0,0,1-4-1.8,9.58,9.58,0,0,1-2.38-1.77,2.44,2.44,0,0,1-.19-3.44,8.29,8.29,0,0,1,1.91-1.78,22.56,22.56,0,0,1,3.11-1.82c1.23-.61,2.65-1.22,4.24-1.82l-7.34-2"/><path class="cls-4" d="M318.8,109.75c-2,.72-4.06,1.54-6.08,2.47a44.41,44.41,0,0,0-5.72,3.09,19.31,19.31,0,0,0-4.34,3.67,7.28,7.28,0,0,0-1.88,4.22,6.73,6.73,0,0,0,1.34,4.3,16.57,16.57,0,0,0,4.58,4.21,48.11,48.11,0,0,0,7.9,4.1,111.69,111.69,0,0,0,11.27,4c11,3.29,20.66,6.12,29.59,8.6S372.74,153,380.82,155s16.11,3.61,24.53,5.17,17.41,3,27.47,4.47l2.38-3.32c-9-1.3-17.09-2.57-24.86-4s-15.18-2.93-23-4.74-15.89-3.88-25-6.38-19-5.34-30.44-8.74a100.43,100.43,0,0,1-9.67-3.35,42.77,42.77,0,0,1-6.82-3.45,15.29,15.29,0,0,1-4-3.52,5.64,5.64,0,0,1-1.23-3.59,6.2,6.2,0,0,1,1.58-3.64,16.55,16.55,0,0,1,3.78-3.2,39.68,39.68,0,0,1,5-2.73c1.78-.82,3.62-1.56,5.37-2.19l-3.59-1,3.58,1-3.58-1-3.57-1"/><polyline class="cls-4" points="318.81 109.75 322.37 110.75 325.95 111.76 322.37 110.75 318.81 109.75"/><path class="cls-4" d="M205.41,94,201,96.26c4.24.76,9.83,1.43,16.35,2s14,.92,21.91,1.12,16.33.22,24.75,0,16.8-.65,24.76-1.36l-3.08-2.58c-7.77.69-15.85,1.1-23.8,1.28s-15.8.14-23.07-.07-13.95-.57-19.66-1A138.06,138.06,0,0,1,205.41,94"/><path class="cls-4" d="M192.2,100.24l-4.88,2.3c5,1,11.83,2.09,20,3s17.92,1.76,28.61,2.23,22.39.6,34.62.18,24.88-1.38,37.57-3.07L304,102.35c-11.79,1.56-23.55,2.44-34.85,2.83s-22.14.28-32-.15-18.81-1.16-26.42-2-13.88-1.84-18.51-2.76"/><path class="cls-4" d="M156,111.77,150,114c6.25,1.64,12.35,3,18.28,4s11.72,2,17.24,2.67,10.87,1.15,15.93,1.54,9.88.69,14.43,1c3.63.22,7.15.44,10.53.69s6.65.52,9.77.87,6.12.76,9,1.29a76.26,76.26,0,0,1,8.15,2c2.34.72,4.48,1.49,6.49,2.3s3.89,1.69,5.69,2.6,3.57,1.88,5.31,2.89,3.52,2.07,5.35,3.17c3,1.82,6.27,3.77,10.05,5.87s8.19,4.39,13.46,6.83,11.57,5.11,19.09,8,16.55,6,27.18,9.32l11.66,3.65,10.28,3.21,8.81,2.74,7.26,2.24,6.13-2.82-7.21-2.21-8.77-2.7L363.88,170l-11.61-3.6c-10.27-3.19-18.9-6.16-26.27-8.93s-13.34-5.27-18.51-7.64-9.37-4.52-13.09-6.56-6.85-3.89-9.81-5.65c-2-1.16-3.84-2.27-5.72-3.34s-3.76-2.09-5.73-3.06-4-1.91-6.26-2.8-4.61-1.73-7.26-2.53a90.87,90.87,0,0,0-9.78-2.33c-3.38-.62-6.89-1.12-10.47-1.52s-7.22-.72-10.89-1-7.36-.5-11-.72c-4.47-.28-9.09-.56-13.87-.93s-9.72-.81-14.84-1.42-10.39-1.37-15.86-2.37-11.06-2.2-16.85-3.71"/><path class="cls-4" d="M138.14,117.4l-6.3,2.31c7.56,2.09,15,3.78,22.23,5.15s14.3,2.45,21,3.28,13.15,1.45,19.16,1.93,11.63.83,16.77,1.15q4.42.27,8.22.53c2.54.18,4.86.36,7,.57s4,.44,5.67.71a33.71,33.71,0,0,1,4.34,1c1.57.5,3.06,1.06,4.5,1.68s2.83,1.31,4.23,2.06,2.79,1.56,4.23,2.43,2.93,1.81,4.51,2.79c3,1.9,6.37,4,10.35,6.27s8.7,4.83,14.38,7.55,12.54,5.73,20.72,8.93,18,6.72,29.59,10.45l11.69,3.75,10.32,3.3,8.87,2.83,7.33,2.32,6.34-2.91L366,183.17l-8.83-2.79-10.28-3.26q-5.47-1.73-11.63-3.7c-11.2-3.57-20.64-6.91-28.68-10s-14.54-5.94-20.14-8.59-10.11-5-14-7.27-7.17-4.22-10.14-6c-1.7-1.05-3.31-2-4.88-3s-3.09-1.8-4.64-2.61-3.12-1.57-4.78-2.26a54.35,54.35,0,0,0-5.27-1.92,46.85,46.85,0,0,0-5.85-1.37c-2.14-.38-4.47-.68-7-1s-5.21-.48-8.08-.69-5.91-.39-9.12-.59c-5.13-.32-10.55-.66-16.28-1.11s-11.72-1-18-1.8-12.78-1.75-19.52-3-13.63-2.84-20.73-4.79"/><path class="cls-4" d="M98.31,129.89a112.13,112.13,0,0,1,10.33,4.76,68,68,0,0,1,7.36,4.47,56,56,0,0,1,5.25,4.22c1.51,1.37,2.82,2.7,4.1,4s2.37,2.4,3.66,3.57a40.37,40.37,0,0,0,4.36,3.46,47.57,47.57,0,0,0,6,3.45,80.74,80.74,0,0,0,8.57,3.52,84.38,84.38,0,0,0,13,3.35c4.67.85,9.61,1.44,14.76,1.87s10.52.69,16,.87,11.15.27,16.87.36c4.87.08,9.78.16,14.68.3s9.8.33,14.66.63,9.67.71,14.4,1.28,9.4,1.32,14,2.29a129.83,129.83,0,0,1,19.48,5.83,168.39,168.39,0,0,1,17.8,8.06c5.61,2.92,10.78,6,15.36,8.88s8.67,5.74,11.91,8.11l9.74-1.69c-4.2-3-8.94-6.2-14.12-9.39s-10.68-6.29-16.6-9.24a178.28,178.28,0,0,0-18.52-8,149.72,149.72,0,0,0-20.13-5.79c-5.11-1.08-10.27-1.9-15.45-2.54s-10.37-1.09-15.59-1.42-10.43-.54-15.64-.69-10.41-.23-15.56-.32c-5.62-.09-11-.18-16-.33s-9.79-.38-14.26-.73-8.65-.84-12.56-1.54a68.48,68.48,0,0,1-10.83-2.75,73.93,73.93,0,0,1-7.57-3.06,42.17,42.17,0,0,1-5.32-3,39.19,39.19,0,0,1-4-3.14c-1.21-1.09-2.36-2.22-3.59-3.43s-2.76-2.74-4.37-4.17a58.3,58.3,0,0,0-5.62-4.41,73.5,73.5,0,0,0-7.86-4.7,119.6,119.6,0,0,0-11-5l-7.66,2.08"/><path class="cls-4" d="M78.67,136a82.73,82.73,0,0,1,8.06,4,49.22,49.22,0,0,1,5.75,3.74,45.77,45.77,0,0,1,4.17,3.58c1.22,1.18,2.3,2.35,3.37,3.51,1.26,1.36,2.53,2.74,4,4.14a46.65,46.65,0,0,0,5.21,4.3,58.41,58.41,0,0,0,7.54,4.47,101.42,101.42,0,0,0,11,4.68,120.3,120.3,0,0,0,18.37,4.94c6.48,1.25,13.2,2.13,20,2.75s13.73,1,20.56,1.24,13.59.35,20.13.46c4.3.07,8.54.14,12.67.25s8.16.25,12,.47,7.58.51,11.1.91,6.85.93,9.93,1.59a89.55,89.55,0,0,1,14.9,4.8,143.15,143.15,0,0,1,15.17,7.47c5,2.84,10,6,14.63,9.16s9.13,6.58,13.07,9.79l10.13-1.63c-2-1.64-5.35-4.21-9.6-7.22s-9.29-6.38-15-9.74a164.89,164.89,0,0,0-18.27-9.4,107.37,107.37,0,0,0-20-6.56c-3.66-.79-7.49-1.4-11.46-1.87s-8.09-.81-12.33-1.06-8.59-.42-13-.53-9-.2-13.61-.27c-6-.1-12.23-.21-18.51-.42s-12.59-.55-18.81-1.09-12.3-1.31-18.13-2.4a106.31,106.31,0,0,1-16.37-4.31,92.78,92.78,0,0,1-10.09-4.24,54.57,54.57,0,0,1-7-4.11,44.65,44.65,0,0,1-4.89-4c-1.39-1.3-2.61-2.59-3.81-3.85s-2.32-2.45-3.63-3.69a46.62,46.62,0,0,0-4.51-3.79,56.52,56.52,0,0,0-6.2-3.95q-4.24-2.33-8.7-4.21l-8,2.11"/></svg>