<?xml version="1.0" encoding="UTF-8"?><svg id="a" xmlns="http://www.w3.org/2000/svg" viewBox="0 0 480 480"><defs><style>.b{stroke:#f34d3b;}.b,.c{fill:none;stroke-miterlimit:10;stroke-width:10px;}.d{fill:#eea91b;}.c{stroke:#3a85ff;}</style></defs><path class="b" d="M102.81,87.56h0c-50.93,0-92.22,41.29-92.22,92.22,1.73,19.04,6.91,37.61,15.29,54.8l76.93,157.86,76.93-157.86c8.38-17.19,13.56-35.75,15.29-54.8,0-50.93-41.29-92.22-92.22-92.22h0Zm0,142.05c-27.95,0-50.6-22.66-50.6-50.6s22.66-50.6,50.6-50.6,50.6,22.66,50.6,50.6-22.66,50.6-50.6,50.6Z"/><path class="c" d="M424.19,128.4h0c-24.97,0-45.22,20.24-45.22,45.22,.85,9.34,3.39,18.44,7.5,26.87l37.72,77.4,37.72-77.4c4.11-8.43,6.65-17.53,7.5-26.87,0-24.97-20.24-45.22-45.22-45.22Zm0,69.65c-13.7,0-24.81-11.11-24.81-24.81s11.11-24.81,24.81-24.81,24.81,11.11,24.81,24.81-11.11,24.81-24.81,24.81Z"/><path class="d" d="M269.54,313.58l-34.42,39.24c-9.9,11.29-23.54,18.67-38.41,20.79l-44.21,6.31,2.27-4.86c4.79-10.23,15.18-16.84,26.47-16.84,.56,0,1.13,.02,1.69,.05,1.58,.09,3.19,.14,4.78,.14,20.4,0,40.01-7.48,55.22-21.07l26.6-23.76m54.61-37.34c-17.86,0-35.16,6.56-48.56,18.53l-39.31,35.11c-13.39,11.96-30.7,18.53-48.56,18.53-1.4,0-2.8-.04-4.2-.12h0c-.76-.04-1.52-.07-2.27-.07-15.15,0-29.04,8.75-35.52,22.6l-10.12,21.61,62.52-8.92c17.24-2.46,33.03-11.01,44.51-24.1l43.32-49.39c12.7-14.48,30.61-23.35,49.83-24.66l67.82-4.64-75.25-4.36c-1.41-.08-2.82-.12-4.22-.12h0Z"/></svg>