<svg id="Livello_1" data-name="Livello 1" xmlns="http://www.w3.org/2000/svg" viewBox="0 0 480 480"><defs><style>.cls-1{fill:#f33c17;}</style></defs><title>Tavola disegno 1</title><path class="cls-1" d="M459.08,40.65H20.92A16.44,16.44,0,0,0,4.5,57.07V342.39a16.45,16.45,0,0,0,16.42,16.43H198.38c-2.17,29.2-3.1,41.71-3.49,47.12-4.82.14-14.84.14-28.34.14h-.12c-24.54.58-34.5,2.6-39.47,8-4.16,4.55-3.79,10.19-3.37,16.73.08,1.18.16,2.43.22,3.74l.22,4.77H352.55l.2-4.78c.06-1.37.14-2.66.22-3.88.41-6.48.76-12.09-3.38-16.61-4.95-5.4-14.91-7.42-39.46-8H310c-13.49,0-23.52,0-28.34-.14-.39-5.41-1.31-17.92-3.49-47.12h180.9a16.45,16.45,0,0,0,16.42-16.43V57.07A16.44,16.44,0,0,0,459.08,40.65ZM272,410.31c.12,5.36,5.66,5.52,9.71,5.63,4.41.13,12.39.14,28.29.14,13.29.32,28.94,1.14,32.26,4.76,1.15,1.25,1.09,3.94.81,8.51H133.52c-.29-4.55-.34-7.23.82-8.49,3.33-3.64,19-4.47,32.27-4.78,15.93,0,23.87,0,28.28-.14,4.06-.11,9.6-.27,9.71-5.63.14-2.12,2.54-34.41,3.81-51.49h59.74C269.43,375.91,271.83,408.2,272,410.31ZM465.5,342.39a6.44,6.44,0,0,1-6.42,6.43H20.92a6.44,6.44,0,0,1-6.42-6.43V57.07a6.43,6.43,0,0,1,6.42-6.42H459.08a6.43,6.43,0,0,1,6.42,6.42Z"/><rect class="cls-1" x="30.92" y="254.63" width="130.84" height="10"/><rect class="cls-1" x="30.92" y="289.46" width="175.74" height="10"/></svg>