<svg id="Livello_1" data-name="Livello 1" xmlns="http://www.w3.org/2000/svg" viewBox="0 0 480 480"><defs><style>.cls-1{fill:#77b900;}</style></defs><title>Tavola disegno 1</title><path class="cls-1" d="M72.91,220.68s38-56,113.8-61.82V138.53C102.73,145.28,30,216.41,30,216.41s41.19,119.07,156.71,130v-21.6C101.94,314.11,72.91,220.68,72.91,220.68Zm113.8,61.13V301.6c-64.07-11.43-81.85-78-81.85-78s30.76-34.07,81.85-39.6v21.71h-.1c-26.82-3.22-47.76,21.83-47.76,21.83s11.74,42.17,47.86,54.31m0-180.77v37.49c2.46-.18,4.93-.35,7.41-.43,95.47-3.22,157.68,78.31,157.68,78.31s-71.45,86.88-145.88,86.88a109,109,0,0,1-19.21-1.7v23.19a127.67,127.67,0,0,0,16,1c69.27,0,119.36-35.38,167.87-77.25,8,6.44,41,22.11,47.73,29-46.12,38.61-153.61,69.74-214.54,69.74-5.88,0-11.52-.36-17.06-.89V379H450V101Zm0,82.93V158.86c2.44-.17,4.9-.3,7.41-.38,68.65-2.16,113.7,59,113.7,59S259.17,285.05,207,285.05a63.28,63.28,0,0,1-20.29-3.24V205.68c26.72,3.23,32.1,15,48.17,41.83l35.74-30.14s-26.09-34.22-70.06-34.22a129.2,129.2,0,0,0-13.85.82"/></svg>