<svg id="Livello_1" data-name="Livello 1" xmlns="http://www.w3.org/2000/svg" viewBox="0 0 480 480"><defs><style>.cls-1{fill:#ee4c2c;}</style></defs><title>Tavola disegno 1</title><path class="cls-1" d="M362.54,152.3c68.26,68.26,68.26,177.77,0,246.5-66.84,68.26-176.82,68.26-245.08,0a174,174,0,0,1,0-246.5L239.76,30V91.15l-11.37,11.38-81.06,81.06c-51.2,50.25-51.2,132.73,0,183.93,50.24,51.19,132.73,51.19,183.92,0,51.2-50.25,51.2-132.73,0-183.93Zm-61.15-7.58A22.76,22.76,0,1,1,324.14,122,22.76,22.76,0,0,1,301.39,144.72Z"/></svg>