<?xml version="1.0" encoding="UTF-8"?><svg id="a" xmlns="http://www.w3.org/2000/svg" xmlns:xlink="http://www.w3.org/1999/xlink" viewBox="0 0 480 480"><defs><style>.c{fill:url(#b);fill-rule:evenodd;}</style><linearGradient id="b" x1="240" y1="430.26" x2="240" y2="49.91" gradientTransform="translate(0 482) scale(1 -1)" gradientUnits="userSpaceOnUse"><stop offset="0" stop-color="#1a6dff"/><stop offset="1" stop-color="#c822ff"/></linearGradient></defs><path class="c" d="M430,284.28c-5.44,26.17-29.58,93.36-106.61,129.74l-30.93-34.78-52.2,52.46c-29.7-.4-58.89-7.66-85.32-21.21-26.43-13.55-49.37-33.04-67-56.92,5.54,1.73,11.27,2.81,17.06,3.21,8.55,.16,17.8-2.98,17.8-17.33V197.88c.12-3.64-.61-7.26-2.14-10.56-1.52-3.31-3.8-6.21-6.65-8.48s-6.19-3.85-9.75-4.6-7.26-.66-10.77,.26c-24.17,5.56-43.48,65.86-43.48,65.86-.28-27.83,5.53-55.4,16.98-80.77,11.46-25.37,28.31-47.95,49.37-66.15,27.74-23.97,61.68-39.63,97.91-45.16-26.39,15.03-41.21,39.55-41.21,60.13,0,33.11,19.94,29.1,25.84,24.23v191.08c1,2.4,2.32,4.65,3.89,6.72,2.64,3.65,6.11,6.61,10.11,8.64,4.02,2.03,8.46,3.08,12.96,3.04,19.96,0,45.86-22.79,45.86-22.79V164.67c0-15.74-11.85-34.75-23.74-41.27,0,0,21.99-3.89,38.95,9.09,3.19-3.89,6.58-7.62,10.15-11.16,39.6-38.86,76.89-49.92,107.95-55.45,0,0-56.47,44.39-56.47,103.94,0,44.28,1.15,152.29,1.15,152.29,20.96,20.23,52.12-9,80.27-37.84v.02Z"/></svg>