<svg id="Livello_1" data-name="Livello 1" xmlns="http://www.w3.org/2000/svg" viewBox="0 0 480 480"><title>Tavola disegno 1</title><path d="M210.25,264.27c11.37-16.88,25.15-32,39.44-46.44a278,278,0,0,1,22.41-20.45c.07-1.17-.73-1.38-1.3-1.74-29-16-57.2-48.12-93.39-37.21-16.73,5.59-35,15.39-41.7,32.6-1.93,5.85-1.42,12.13-2,18.18-.26,4.73-6.05,6.15-9.42,8.37-12.35,5.53-66,29.84-40.74-3.31,20.34-27.52,44.22-53.84,75.8-68.41,54-25.37,104.23-8.79,154.9,15.12.65.29,1.32.53,1.94.78a122.55,122.55,0,0,1,28.72-18c15.28-8.27,40.13-5.91,45.28,13.32,4.54,19-41.7,55.93-59.9,56.95-14.41,2.55-29-1.62-41.72-8.35-1.89-1.32-3.68,1.92-5.38,2.88-17.13,14.73-30.48,33.08-45.17,50.11,0,.74-.55,2,.49,1.95,4.34-.19,8.68-.49,13-.58,17.49-.28,34.26,5.27,50.55,11.07A241.6,241.6,0,0,1,438.24,385.89c6.67,12.08,25.85,52.05-4.82,33.94-19.47-11.18-38.58-24.58-53-42-12.94-15.91,16.4-23.37-14.3-46.05-27.57-17.23-61.12-21.33-92.69-26.13-23.73-3.52-47.25-3.72-71.12-2.25-27.1,32.22-57.7,61.8-94.88,82.14C89.78,395,70.9,403.83,50.59,405c-6.63-.16-21.67.58-19.66-9.17C51.07,330.43,147.7,280.74,210.25,264.27ZM56.14,383.17c13.66,18.39,74.56-31.7,87.46-42.83a309.07,309.07,0,0,0,30.89-31.89c1.19-2.14-4.23-.78-5.41-.65a262.1,262.1,0,0,0-25.78,6.67C116.51,323.74,53.42,349.12,56.14,383.17Zm278-215.82c8.46,6,38.65,3.87,45.22-5.14,4.06-8.15-11.64-8.57-16.49-7.23C354.73,156.4,339.57,161.28,334.17,167.35Z"/><path d="M281.27,121.61c-20.71-.07-41.07-13.54-34.71-35.49,4.85-19.28,26.09-38,45.76-25.6,15.08,10.24,28,28.55,27.4,47.35a10.15,10.15,0,0,1-4.08,7.89C307.21,121.89,296.53,121.67,281.27,121.61Z"/></svg>